# xmcd
#
# Track frame offsets:
#	150
#	15427
#	36935
#	57228
#	73405
#	92511
#	115336
#	137207
#	154314
#	169918
#	187879
#
# Disc length: 2744 seconds
#
# Revision: 0
# Processed by: cddbd v1.5.2PL0 Copyright (c) Steve Scherf et al.
# Submitted via: dBpowerAMP V4.0
#
DISCID=960ab60b
DTITLE=N.ZOUDIARHS-M.ZORBALA - "Nero Ki Alati"
DYEAR=2003
DGENRE=Entechno
TTITLE0="Olo Gyrnw"
TTITLE1="Serpantines"
TTITLE2="Mia Kalimera"
TTITLE3="Min Rwtiseis"
TTITLE4="Yalino Govaki"
TTITLE5="Prosmoni"
TTITLE6="Einai Fores"
TTITLE7="Karavania"
TTITLE8="Erwtas"
TTITLE9="Anapodies"
TTITLE10="Nero Ki Alati"
EXTD=
EXTT0=
EXTT1=
EXTT2=
EXTT3=
EXTT4=
EXTT5=
EXTT6=
EXTT7=
EXTT8=
EXTT9=
EXTT10=
PLAYORDER=
